Coordinates
version=1
nRows=19
nColumns=36
inDegrees=yes

Units are S.I. units (second, meters, Newtons, ...)
If the header above contains a line with 'inDegrees', this indicates whether rotational values are in degrees (yes) or radians (no).

endheader
time	pelvis_tilt	pelvis_list	pelvis_rotation	pelvis_tx	pelvis_ty	pelvis_tz	hip_flexion_r	hip_adduction_r	hip_rotation_r	knee_angle_r	knee_angle_r_beta	ankle_angle_r	subtalar_angle_r	mtp_angle_r	hip_flexion_l	hip_adduction_l	hip_rotation_l	knee_angle_l	knee_angle_l_beta	ankle_angle_l	subtalar_angle_l	mtp_angle_l	lumbar_extension	lumbar_bending	lumbar_rotation	arm_flex_r	arm_add_r	arm_rot_r	elbow_flex_r	pro_sup_r	arm_flex_l	arm_add_l	arm_rot_l	elbow_flex_l	pro_sup_l
     24.73333330	    -32.81067028	      6.41302375	     -6.45430610	     -0.02210878	      0.79533400	      0.02205098	     81.36100120	     -5.74326339	      4.43642272	     65.64958991	      1.14580150	     29.14513952	      2.92717082	     -7.49999987	     82.11890167	    -12.19847167	     -0.06830144	     68.57372448	      1.19683727	     27.95152141	      5.28765514	     -7.49999987	    -34.01811413	     11.88305549	     11.35961110	     35.69445143	    -24.44824525	    -13.80247726	     72.39018621	     67.21832058	     43.18369594	     -8.30512603	     26.30543809	     79.78935041	     74.16305727
     24.75000000	    -32.61996447	      7.04170382	     -6.68136180	     -0.01260551	      0.78423138	      0.01615543	     82.32490015	     -5.70225103	      5.38244488	     67.22169429	      1.17323989	     30.02867721	      3.39306078	     -7.49999987	     82.56925259	    -12.18920217	     -0.58532050	     69.93819406	      1.22065176	     28.85625837	      5.42565516	     -7.49999987	    -34.15937636	     11.09815640	     11.06201046	     35.07876416	    -24.32553504	    -14.13930702	     72.55224846	     67.14819194	     42.79023193	     -9.05928171	     26.37514254	     81.22945919	     73.78596497
     24.76666670	    -32.54478498	      7.17851098	     -6.92345904	     -0.02197771	      0.77681617	      0.00968803	     83.39557378	     -5.63407531	      5.74860379	     68.73865757	      1.19971590	     30.39564734	      3.55022866	     -7.49999987	     83.44912787	    -12.31714906	     -0.49145809	     71.37262815	      1.24568736	     29.32075232	      5.38341112	     -7.49999987	    -34.45870291	     10.81501473	     11.18788929	     35.62560563	    -24.69153814	    -14.27954708	     72.52417627	     67.18687116	     43.46220900	     -9.29031558	     26.16050156	     81.62676696	     73.82184436
     24.78333330	    -32.18756403	      7.56352285	     -7.25117652	     -0.01435699	      0.75958907	      0.00220517	     84.56203741	     -5.71243116	      6.42566490	     70.85736948	      1.23669440	     31.32688370	      3.86938839	     -7.49999987	     84.27714545	    -12.23677490	     -0.66371976	     73.51310607	      1.28304574	     30.27037803	      5.29718757	     -7.49999987	    -34.28556688	     10.38141633	     10.95383983	     34.95637389	    -24.62823204	    -14.44592242	     72.37382267	     67.18351337	     43.06277028	     -9.46841668	     26.09929233	     82.32512866	     73.77696832
     24.80000000	    -32.26413093	      7.94068778	     -7.00071313	     -0.02750575	      0.75114409	      0.00889095	     86.28844821	     -6.14152380	      6.96502340	     73.10205142	      1.27587149	     32.00411774	      4.62177571	     -7.49999987	     85.64956199	    -12.06782990	     -0.90582326	     75.15588333	      1.31171762	     30.71296247	      5.72800618	     -7.49999987	    -33.92103057	     10.01450558	     10.28162537	     35.26353985	    -24.31663199	    -14.80057294	     72.45009937	     67.06367805	     43.53124806	     -9.71258370	     25.87337979	     83.23129833	     73.56750114
     24.81666670	    -32.38795180	      8.22657102	     -6.95274982	     -0.04019572	      0.74223146	      0.00124259	     88.30508796	     -6.35365594	      7.34083912	     75.22547818	      1.31293228	     32.32401960	      4.80131939	     -7.49999987	     87.39039386	    -11.98444835	     -0.83084438	     76.94066270	      1.34286789	     30.74543869	      5.66207747	     -7.49999987	    -33.55872779	      9.68561814	      9.83235260	     36.21439510	    -24.16002104	    -14.67138300	     72.59166586	     66.86929793	     44.72747923	    -10.20025842	     25.69943716	     84.05697958	     73.29697526
     24.83333330	    -32.91120558	      8.25110160	     -6.61567179	     -0.05206558	      0.73350862	      0.00589840	     90.38766468	     -6.56869416	      7.44683873	     77.09198364	      1.34550894	     32.72871690	      4.91056608	     -7.49999987	     89.42918665	    -11.84755634	     -0.56168054	     78.37299681	      1.36786684	     30.59151159	      5.61549823	     -7.49999987	    -32.95868407	      9.61311953	      9.40245893	     37.33439573	    -23.93785862	    -14.36245187	     72.56456176	     66.69944140	     46.03495501	    -10.40333379	     26.09618667	     84.35918026	     73.21174173
     24.85000000	    -33.07127025	      8.16698336	     -6.42297192	     -0.05271080	      0.73274041	      0.00661340	     91.66196560	     -6.72116043	      7.43893588	     78.21711128	      1.36514612	     32.89234466	      5.08807521	     -7.49999987	     90.70232341	    -11.75584507	     -0.24391469	     79.26150341	      1.38337420	     30.15563151	      5.74453716	     -7.49999987	    -32.99936046	      9.61014628	      9.18282677	     37.99644250	    -23.92358007	    -13.98651688	     72.49766603	     66.23892994	     46.48690594	    -10.55403775	     25.69930983	     84.10096315	     72.40849509
     24.86666670	    -33.21813061	      8.28812452	     -6.18837761	     -0.05119874	      0.73233025	      0.00586099	     92.24284353	     -6.96129183	      7.61557218	     78.56086048	      1.37114568	     32.53684324	      4.57463774	     -7.49999987	     91.19937970	    -11.44183251	     -0.22262316	     79.37226623	      1.38530738	     29.75424901	      5.30625015	     -7.49999987	    -32.87421926	      9.43604806	      8.86721122	     38.14130310	    -23.87283906	    -13.88267667	     72.23837056	     66.13565817	     46.86907972	    -10.78643556	     25.92240186	     83.62991541	     72.24063005
     24.88333330	    -33.07387166	      8.17203523	     -6.08424370	     -0.06515690	      0.72407658	      0.01170150	     93.04976278	     -6.97438170	      7.48941132	     79.46291102	      1.38688943	     32.66207354	      4.60630975	     -7.49999987	     92.14350037	    -11.54915140	     -0.02946191	     80.14915859	      1.39886671	     29.56897012	      5.41814241	     -7.49999987	    -33.02498349	      9.28504728	      8.91574586	     38.75291659	    -23.74175294	    -13.75613791	     72.27327780	     66.16067028	     47.83525143	    -10.68678540	     25.91168676	     83.65414788	     72.27451187
     24.90000000	    -33.22930537	      7.91190919	     -6.10655447	     -0.07414911	      0.72186449	      0.00336556	     94.00727983	     -6.94433043	      7.14154033	     79.79573948	      1.39269838	     32.45589502	      4.57253874	     -7.49999987	     93.34329021	    -11.56325969	      0.47728576	     80.71145332	      1.40868060	     28.69188334	      5.04680612	     -7.49999987	    -32.56490838	      9.43458893	      8.90599486	     39.68935152	    -23.60962300	    -13.07115644	     71.72020308	     66.09736643	     49.10176236	    -11.26997477	     26.98326874	     83.55649874	     72.17739088
     24.91666670	    -33.08486342	      7.81579482	     -6.11528248	     -0.07547110	      0.71495992	      0.00526025	     94.60703237	     -6.87847583	      7.13651143	     80.37416596	      1.40279383	     32.21937830	      4.38724443	     -7.49999987	     94.03873642	    -11.56575771	      0.63271353	     81.24390522	      1.41797364	     28.33758907	      4.99607433	     -7.49999987	    -32.21741433	      9.33387391	      8.73262296	     40.23258940	    -23.35171513	    -12.41691068	     71.53846856	     65.85496957	     50.02056873	    -11.62359032	     27.29697315	     84.13416863	     71.72733432
     24.93333330	    -32.69135712	      7.62870170	     -6.10487122	     -0.07421791	      0.71473468	      0.00438820	     94.59260142	     -6.83438766	      7.17891253	     80.64385743	      1.40750083	     32.09408212	      4.39076052	     -7.49999987	     94.18549193	    -11.44774764	      0.83962370	     81.55563744	      1.42341440	     28.06652639	      4.90900216	     -7.49999987	    -32.19141416	      9.37479875	      8.71715056	     40.08590938	    -23.24158787	    -12.40181482	     71.38948073	     65.84027922	     50.33131000	    -11.71168351	     27.25544337	     84.11458491	     71.70254711
     24.95000000	    -32.01995435	      6.90454006	     -5.95659927	     -0.08771388	      0.71307831	      0.01093037	     94.19553193	     -6.66257638	      6.84523048	     80.97701688	      1.41331556	     31.97289296	      4.17472435	     -7.49999987	     94.35915111	    -11.39509097	      1.53483050	     81.92552535	      1.42987016	     27.52619244	      4.52015625	     -7.49999987	    -32.57487920	      9.90559940	      9.01612677	     41.06465512	    -23.14137757	    -11.99018743	     70.42391956	     65.76927680	     51.65728547	    -11.64868816	     27.58442817	     83.86127661	     71.60434229
     24.96666670	    -31.38078136	      6.85920291	     -6.12666173	     -0.08504491	      0.71367484	     -0.00367595	     93.86597832	     -6.52286674	      7.09592816	     80.80683976	      1.41034541	     31.44641823	      4.08313674	     -7.49999987	     94.05368414	    -11.20244619	      1.60409826	     82.06201794	      1.43225240	     27.04732669	      4.25300756	     -7.49999987	    -32.52838371	      9.91096042	      9.10081056	     41.13764798	    -23.11604264	    -11.91050797	     70.29309170	     65.69468902	     51.89838452	    -11.60636221	     27.44545627	     83.88419096	     71.44992343
     24.98333330	    -30.27277094	      6.48473600	     -6.34137091	     -0.08639308	      0.71483338	     -0.00314551	     92.80239625	     -6.37363995	      7.03738742	     80.57410362	      1.40628340	     31.08721521	      4.08018071	     -7.49999987	     93.23151694	    -11.07728495	      1.86593450	     82.14173453	      1.43364372	     26.67520377	      3.63283185	     -7.49999987	    -33.25579670	     10.15337184	      9.12985506	     41.72186885	    -23.30100969	    -11.05817214	     69.17224026	     65.63055291	     51.80097607	    -11.72275390	     27.19831155	     84.00991742	     71.16233305
     25.00000000	    -29.53992103	      6.32598585	     -6.55215457	     -0.08648869	      0.71004867	     -0.00505378	     92.39131241	     -6.30879633	      7.09327589	     80.75968093	      1.40952234	     30.83264935	      4.10268160	     -7.49999987	     92.94298154	    -11.00165450	      2.06213840	     82.57088241	      1.44113376	     26.59770789	      3.30503958	     -7.49999987	    -33.34603762	     10.33518700	      9.00370609	     41.89561743	    -23.18653144	    -10.64920738	     68.58647674	     65.59428195	     51.18495163	    -11.83046260	     26.77696197	     84.50583246	     70.96130715
     25.01666670	    -28.72875979	      6.11018636	     -6.66682935	     -0.08900930	      0.70486713	     -0.00563803	     92.21068934	     -6.28402116	      7.14698364	     81.42305348	      1.42110037	     30.74585208	      4.18273826	     -7.49999987	     92.93042711	    -10.97273163	      2.21326289	     83.29480850	      1.45376866	     26.57478834	      3.16038999	     -7.49999987	    -33.20863603	     10.51610503	      8.91974443	     41.53321581	    -23.22005323	    -10.34320955	     68.00658460	     65.43868542	     50.67801275	    -11.67032476	     26.85863778	     84.98376503	     70.58946595
     25.03333330	    -28.18311097	      5.84331957	     -6.59267678	     -0.10068301	      0.70338901	     -0.00039379	     92.31313262	     -6.20735188	      7.15705663	     82.02711752	      1.43164328	     30.61927891	      4.10889731	     -7.49999987	     93.20768123	    -11.00001355	      2.36221339	     83.76491472	      1.46197356	     26.24272146	      3.06141586	     -7.49999987	    -33.22361795	     10.56378545	      8.92103556	     41.50234970	    -23.20120547	    -10.23155661	     67.76747805	     65.46757396	     50.87485627	    -11.48797249	     27.06026283	     85.07967004	     70.62738351
